<svg width="60" height="60" viewBox="0 0 60 60" fill="none" xmlns="http://www.w3.org/2000/svg">
<path d="M16.25 55C15.2083 55 14.3233 54.635 13.595 53.905C12.865 53.1767 12.5 52.2917 12.5 51.25V47.375C11.75 46.5417 11.1458 45.6142 10.6875 44.5925C10.2292 43.5725 10 42.4583 10 41.25V17.5C10 14.0417 11.6042 11.51 14.8125 9.905C18.0208 8.30167 23.0833 7.5 30 7.5C37.1667 7.5 42.2917 8.27083 45.375 9.8125C48.4583 11.3542 50 13.9167 50 17.5V41.25C50 42.4583 49.7708 43.5725 49.3125 44.5925C48.8542 45.6142 48.25 46.5417 47.5 47.375V51.25C47.5 52.2917 47.135 53.1767 46.405 53.905C45.6767 54.635 44.7917 55 43.75 55C42.7083 55 41.8233 54.635 41.095 53.905C40.365 53.1767 40 52.2917 40 51.25V50H20V51.25C20 52.2917 19.635 53.1767 18.905 53.905C18.1767 54.635 17.2917 55 16.25 55ZM30.125 15H44.125H16.125H30.125ZM40 32.5H15H45H40ZM15 27.5H45V20H15V27.5ZM21.25 42.5C22.2917 42.5 23.1767 42.135 23.905 41.405C24.635 40.6767 25 39.7917 25 38.75C25 37.7083 24.635 36.8233 23.905 36.095C23.1767 35.365 22.2917 35 21.25 35C20.2083 35 19.3233 35.365 18.595 36.095C17.865 36.8233 17.5 37.7083 17.5 38.75C17.5 39.7917 17.865 40.6767 18.595 41.405C19.3233 42.135 20.2083 42.5 21.25 42.5ZM38.75 42.5C39.7917 42.5 40.6767 42.135 41.405 41.405C42.135 40.6767 42.5 39.7917 42.5 38.75C42.5 37.7083 42.135 36.8233 41.405 36.095C40.6767 35.365 39.7917 35 38.75 35C37.7083 35 36.8233 35.365 36.095 36.095C35.365 36.8233 35 37.7083 35 38.75C35 39.7917 35.365 40.6767 36.095 41.405C36.8233 42.135 37.7083 42.5 38.75 42.5ZM16.125 15H44.125C43.5 14.2917 42.1567 13.6975 40.095 13.2175C38.0317 12.7392 34.7083 12.5 30.125 12.5C25.6667 12.5 22.4058 12.76 20.3425 13.28C18.2808 13.8017 16.875 14.375 16.125 15ZM20 45H40C41.375 45 42.5525 44.5108 43.5325 43.5325C44.5108 42.5525 45 41.375 45 40V32.5H15V40C15 41.375 15.49 42.5525 16.47 43.5325C17.4483 44.5108 18.625 45 20 45Z" fill="white"/>
</svg>
