<svg width="16" height="16" viewBox="0 0 16 16" fill="none" xmlns="http://www.w3.org/2000/svg">
<path d="M4.00008 12.6667H6.00008V8.66671H10.0001V12.6667H12.0001V6.66671L8.00008 3.66671L4.00008 6.66671V12.6667ZM4.00008 14C3.63341 14 3.31964 13.8696 3.05875 13.6087C2.79741 13.3474 2.66675 13.0334 2.66675 12.6667V6.66671C2.66675 6.4556 2.71408 6.2556 2.80875 6.06671C2.90297 5.87782 3.03341 5.72226 3.20008 5.60004L7.20008 2.60004C7.3223 2.51115 7.45008 2.44449 7.58341 2.40004C7.71675 2.3556 7.85564 2.33337 8.00008 2.33337C8.14453 2.33337 8.28341 2.3556 8.41675 2.40004C8.55008 2.44449 8.67786 2.51115 8.80008 2.60004L12.8001 5.60004C12.9667 5.72226 13.0974 5.87782 13.1921 6.06671C13.2863 6.2556 13.3334 6.4556 13.3334 6.66671V12.6667C13.3334 13.0334 13.203 13.3474 12.9421 13.6087C12.6807 13.8696 12.3667 14 12.0001 14H8.66675V10H7.33341V14H4.00008Z" fill="#969696"/>
</svg>
