<svg width="40" height="45" viewBox="0 0 40 45" fill="none" xmlns="http://www.w3.org/2000/svg">
<path d="M5 39.5H12.5V24.5H27.5V39.5H35V17L20 5.75L5 17V39.5ZM5 44.5C3.625 44.5 2.44833 44.0108 1.47 43.0325C0.49 42.0525 0 40.875 0 39.5V17C0 16.2083 0.1775 15.4583 0.5325 14.75C0.885833 14.0417 1.375 13.4583 2 13L17 1.75C17.4583 1.41667 17.9375 1.16667 18.4375 1C18.9375 0.833333 19.4583 0.75 20 0.75C20.5417 0.75 21.0625 0.833333 21.5625 1C22.0625 1.16667 22.5417 1.41667 23 1.75L38 13C38.625 13.4583 39.115 14.0417 39.47 14.75C39.8233 15.4583 40 16.2083 40 17V39.5C40 40.875 39.5108 42.0525 38.5325 43.0325C37.5525 44.0108 36.375 44.5 35 44.5H22.5V29.5H17.5V44.5H5Z" fill="white"/>
</svg>
