<svg width="69" height="18" viewBox="0 0 69 18" fill="none" xmlns="http://www.w3.org/2000/svg">
<path d="M24.8926 14.6752L22.8974 10.7869L22.5094 11.2941V14.6752H20.0523V1.52637H22.5094V8.10081L24.7263 5.28319H27.5344L24.4122 9.04001L27.7191 14.6752H24.8926Z" fill="white"/>
<path d="M36.0412 9.79138C36.0412 10.7807 35.955 11.6009 35.7825 12.2521C35.6101 12.8908 35.3576 13.4042 35.0251 13.7924C34.6926 14.1681 34.2738 14.4311 33.7688 14.5813C33.2762 14.7316 32.7035 14.8067 32.0507 14.8067C31.398 14.8067 30.8253 14.7316 30.3326 14.5813C29.84 14.4311 29.4274 14.1681 29.0949 13.7924C28.7623 13.4042 28.5099 12.8908 28.3374 12.2521C28.1773 11.6009 28.0973 10.7807 28.0973 9.79138C28.0973 8.18847 28.4052 7.01759 29.021 6.27875C29.6491 5.52738 30.659 5.1517 32.0507 5.1517C33.4425 5.1517 34.4524 5.52738 35.0805 6.27875C35.721 7.01759 36.0412 8.18847 36.0412 9.79138ZM33.5287 10.0731C33.5287 9.52214 33.5041 9.06506 33.4548 8.7019C33.4055 8.32622 33.3193 8.02567 33.1961 7.80026C33.0853 7.57485 32.9375 7.41832 32.7528 7.33066C32.568 7.23048 32.334 7.18038 32.0507 7.18038C31.7798 7.18038 31.5519 7.23048 31.3672 7.33066C31.1825 7.41832 31.0347 7.57485 30.9238 7.80026C30.813 8.02567 30.7329 8.32622 30.6837 8.7019C30.6344 9.06506 30.6098 9.52214 30.6098 10.0731C30.6098 10.5991 30.6282 11.0374 30.6652 11.388C30.7144 11.7261 30.7945 12.0016 30.9053 12.2145C31.0162 12.4149 31.164 12.5589 31.3487 12.6466C31.5335 12.7342 31.7675 12.778 32.0507 12.778C32.334 12.778 32.568 12.7342 32.7528 12.6466C32.9498 12.5589 33.1038 12.4149 33.2146 12.2145C33.3255 12.0016 33.4055 11.7261 33.4548 11.388C33.5041 11.0374 33.5287 10.5991 33.5287 10.0731Z" fill="white"/>
<path d="M45.2833 9.79138C45.2833 10.7807 45.1971 11.6009 45.0247 12.2521C44.8523 12.8908 44.5998 13.4042 44.2673 13.7924C43.9347 14.1681 43.516 14.4311 43.011 14.5813C42.5184 14.7316 41.9457 14.8067 41.2929 14.8067C40.6402 14.8067 40.0674 14.7316 39.5748 14.5813C39.0822 14.4311 38.6696 14.1681 38.337 13.7924C38.0045 13.4042 37.752 12.8908 37.5796 12.2521C37.4195 11.6009 37.3394 10.7807 37.3394 9.79138C37.3394 8.18847 37.6473 7.01759 38.2631 6.27875C38.8913 5.52738 39.9012 5.1517 41.2929 5.1517C42.6846 5.1517 43.6946 5.52738 44.3227 6.27875C44.9631 7.01759 45.2833 8.18847 45.2833 9.79138ZM42.7708 10.0731C42.7708 9.52214 42.7462 9.06506 42.6969 8.7019C42.6477 8.32622 42.5615 8.02567 42.4383 7.80026C42.3275 7.57485 42.1797 7.41832 41.9949 7.33066C41.8102 7.23048 41.5762 7.18038 41.2929 7.18038C41.0219 7.18038 40.7941 7.23048 40.6094 7.33066C40.4246 7.41832 40.2768 7.57485 40.166 7.80026C40.0551 8.02567 39.9751 8.32622 39.9258 8.7019C39.8765 9.06506 39.8519 9.52214 39.8519 10.0731C39.8519 10.5991 39.8704 11.0374 39.9073 11.388C39.9566 11.7261 40.0367 12.0016 40.1475 12.2145C40.2583 12.4149 40.4061 12.5589 40.5909 12.6466C40.7756 12.7342 41.0096 12.778 41.2929 12.778C41.5762 12.778 41.8102 12.7342 41.9949 12.6466C42.192 12.5589 42.3459 12.4149 42.4568 12.2145C42.5676 12.0016 42.6477 11.7261 42.6969 11.388C42.7462 11.0374 42.7708 10.5991 42.7708 10.0731Z" fill="white"/>
<path d="M50.5535 14.6189C50.4181 14.6439 50.1902 14.6752 49.87 14.7128C49.5621 14.7504 49.2296 14.7692 48.8724 14.7692C48.1088 14.7692 47.5792 14.5375 47.2836 14.0742C47.0003 13.5983 46.8587 12.872 46.8587 11.8952V1.52637H49.3158V11.8013C49.3158 12.1018 49.3527 12.3147 49.4266 12.4399C49.5005 12.5526 49.6545 12.609 49.8885 12.609C50.0239 12.609 50.1533 12.6027 50.2764 12.5902C50.4119 12.5652 50.5043 12.5464 50.5535 12.5339V14.6189Z" fill="white"/>
<path d="M58.1472 14.6752C57.9008 14.6752 57.6176 14.6252 57.2973 14.525C56.9771 14.4248 56.7308 14.2182 56.5584 13.9051C56.3244 14.1931 56.0165 14.4248 55.6347 14.6001C55.2529 14.7629 54.7479 14.8443 54.1198 14.8443C53.7134 14.8443 53.3377 14.7942 52.9929 14.694C52.648 14.5938 52.3463 14.4311 52.0876 14.2056C51.8413 13.9677 51.6442 13.6609 51.4964 13.2852C51.361 12.897 51.2932 12.4149 51.2932 11.8388C51.2932 10.6993 51.6258 9.89156 52.2908 9.41569C52.9682 8.93983 53.9412 8.7019 55.2098 8.7019H56.0411V8.30743C56.0411 7.94427 55.9487 7.66877 55.764 7.48093C55.5916 7.28057 55.2713 7.18038 54.8033 7.18038C54.2737 7.18038 53.7811 7.22421 53.3254 7.31187C52.882 7.38701 52.4263 7.49345 51.9583 7.6312V5.48981C52.1307 5.43972 52.3339 5.39589 52.5679 5.35833C52.802 5.30824 53.0421 5.26441 53.2884 5.22684C53.5471 5.18927 53.8057 5.16422 54.0644 5.1517C54.3353 5.12666 54.5816 5.11413 54.8033 5.11413C55.5916 5.11413 56.2258 5.18301 56.7062 5.32076C57.1865 5.44598 57.556 5.64635 57.8146 5.92185C58.0856 6.19735 58.2642 6.54799 58.3504 6.97376C58.4489 7.39953 58.4982 7.90044 58.4982 8.47649V12.1957C58.4982 12.3836 58.5474 12.5339 58.646 12.6466C58.7445 12.7467 58.9354 12.7968 59.2187 12.7968V14.6752H58.1472ZM54.8218 12.7405C55.0804 12.7405 55.2837 12.6967 55.4315 12.609C55.5916 12.5088 55.7147 12.3898 55.8009 12.2521C55.8995 12.1143 55.961 11.9703 55.9857 11.8201C56.0226 11.6573 56.0411 11.5133 56.0411 11.388V10.5427H55.1174C54.7233 10.5427 54.4031 10.6304 54.1567 10.8057C53.9104 10.981 53.7872 11.2816 53.7872 11.7074C53.7872 11.9954 53.8611 12.2396 54.0089 12.4399C54.169 12.6403 54.44 12.7405 54.8218 12.7405Z" fill="white"/>
<path d="M65.6807 15.4642C65.2866 17.1547 64.4122 18 63.0574 18C62.9589 18 62.8234 17.9938 62.651 17.9812C62.4909 17.9812 62.3246 17.975 62.1522 17.9625C61.9921 17.9625 61.8381 17.9562 61.6903 17.9437C61.5548 17.9312 61.4563 17.9186 61.3947 17.9061V15.7835C61.6903 15.8211 61.9921 15.8399 62.3 15.8399C62.8049 15.8399 63.1067 15.5644 63.2052 15.0134L63.2606 14.6752H62.6325L59.6766 5.28319H62.3L64.092 12.5902L65.6623 5.28319H68.0454L65.6807 15.4642Z" fill="white"/>
<path d="M0.954529 4.69603C0.954529 2.10248 3.02233 0 5.57308 0H12.5009C15.0517 0 17.1195 2.10248 17.1195 4.69603V11.7401C17.1195 14.3336 15.0517 16.4361 12.5009 16.4361H5.57308C3.02232 16.4361 0.954529 14.3336 0.954529 11.7401V4.69603Z" fill="white"/>
<path fill-rule="evenodd" clip-rule="evenodd" d="M5.13997 4.69611C5.13997 4.45297 5.33382 4.25586 5.57296 4.25586H12.2121C12.6107 4.25586 12.9338 4.58437 12.9338 4.98961V11.7402C12.9338 11.9833 12.7399 12.1804 12.5008 12.1804C12.2617 12.1804 12.0678 11.9833 12.0678 11.7402V5.13636H5.57296C5.33382 5.13636 5.13997 4.93926 5.13997 4.69611Z" fill="#142377"/>
<path fill-rule="evenodd" clip-rule="evenodd" d="M7.44939 7.04426C7.44939 6.80111 7.64324 6.604 7.88238 6.604H9.90299C10.3016 6.604 10.6246 6.93252 10.6246 7.33776V9.39227C10.6246 9.63541 10.4308 9.83252 10.1917 9.83252C9.95252 9.83252 9.75866 9.63541 9.75866 9.39227V7.48451H7.88238C7.64324 7.48451 7.44939 7.2874 7.44939 7.04426Z" fill="#142377"/>
</svg>
