<svg width="64" height="64" viewBox="0 0 64 64" fill="none" xmlns="http://www.w3.org/2000/svg">
<g id="Favorite" clip-path="url(#clip0_7_833)">
<path id="Vector" d="M34.5965 52.565L34.5917 52.5694C33.138 53.8892 30.8963 53.8887 29.4429 52.55L29.4429 52.55L29.4357 52.5434L29.1423 52.2767L29.1397 52.2743C22.1083 45.9126 16.4238 40.7595 12.5208 35.9215C8.6396 31.1105 6.67652 26.797 6.83243 22.1315C6.97657 18.0596 9.06613 14.1617 12.4175 11.8799L12.4183 11.8793C18.7324 7.57426 26.5864 9.54612 30.8595 14.5477L32 15.8825L33.1404 14.5477C37.4167 9.54248 45.269 7.55134 51.5784 11.8771L51.5825 11.8799C54.9342 14.1619 57.0238 18.0604 57.1676 22.1329L57.1676 22.1341C57.3359 26.7973 55.3745 31.1096 51.489 35.9284C47.5963 40.7561 41.9326 45.902 34.9357 52.2591L34.8632 52.325L34.858 52.3298L34.5965 52.565Z" stroke="black" stroke-width="3"/>
</g>
<defs>
<clipPath id="clip0_7_833">
<rect width="64" height="64" fill="white"/>
</clipPath>
</defs>
</svg>
